<svg xmlns="http://www.w3.org/2000/svg" xmlns:xlink="http://www.w3.org/1999/xlink" width="300" zoomAndPan="magnify" viewBox="0 0 224.87999 195.000001" height="260" preserveAspectRatio="xMidYMid meet" version="1.0"><path fill="#ffcfca" d="M 34.078125 127.476562 C 38.957031 133.011719 43.25 135.820312 50.40625 137.609375 C 55.535156 138.890625 67.175781 137.3125 68.941406 135.269531 C 70.308594 143.890625 74.808594 152.269531 82.15625 156.980469 C 89.507812 161.6875 99.8125 162.050781 106.734375 156.734375 C 107.449219 156.183594 108.175781 155.550781 109.074219 155.414062 C 110.722656 155.15625 112.082031 156.601562 113.238281 157.804688 C 118.828125 163.601562 127.324219 166.445312 135.28125 165.171875 C 143.230469 163.894531 150.417969 158.539062 153.910156 151.28125 C 156.058594 155.78125 160.675781 159.007812 165.644531 159.46875 C 170.609375 159.933594 175.746094 157.621094 178.691406 153.59375 C 179.277344 152.792969 179.820312 151.894531 180.710938 151.445312 C 181.757812 150.921875 183.003906 151.15625 184.164062 151.332031 C 198.203125 153.453125 212.304688 144.09375 218.652344 131.394531 C 220.714844 127.265625 222.125 122.636719 221.578125 118.054688 C 221.132812 114.296875 219.167969 110.597656 216.089844 108.507812 C 215.152344 107.871094 215.089844 106.542969 215.945312 105.796875 C 221.414062 101.035156 224.335938 93.410156 223.257812 86.21875 C 222.101562 78.542969 216.441406 71.738281 209.152344 69.113281 C 208.652344 68.9375 208.496094 68.335938 208.847656 67.933594 C 214.59375 61.390625 215.632812 51.050781 211.164062 43.546875 C 206.777344 36.191406 197.484375 32.199219 189.121094 33.867188 C 188.300781 34.03125 187.519531 33.425781 187.445312 32.597656 C 186.941406 26.683594 183.664062 21.035156 178.714844 17.742188 C 173.691406 14.394531 167.09375 13.566406 161.382812 15.488281 C 160.570312 15.761719 159.683594 15.6875 158.976562 15.203125 C 157.8125 14.40625 155.921875 13.167969 154.246094 12.320312 C 146.507812 8.417969 131.160156 7.503906 122.304688 15.144531 C 121.214844 16.089844 119.65625 16.273438 118.4375 15.503906 C 109.28125 9.730469 97.628906 8.003906 87.210938 10.976562 C 75.984375 14.1875 66.429688 22.785156 62.066406 33.609375 C 61.445312 35.152344 60.917969 36.828125 60.890625 38.46875 C 60.867188 39.730469 59.945312 40.773438 58.6875 40.832031 C 51.628906 41.175781 44.675781 44.273438 40.097656 49.640625 C 34.972656 55.65625 33.167969 64.503906 36.089844 71.851562 C 25.835938 79.289062 22.863281 95.066406 29.707031 105.726562 C 29.707031 105.726562 26.976562 119.429688 34.074219 127.480469 Z M 34.078125 127.476562 " fill-opacity="1" fill-rule="nonzero"/><path fill="#ffa59b" d="M 46.589844 82.246094 C 46.589844 82.246094 45.644531 78.734375 52.160156 77.65625 C 58.675781 76.574219 66.257812 77.851562 64.023438 82.988281 C 61.789062 88.128906 45.546875 87.894531 46.589844 82.246094 Z M 46.589844 82.246094 " fill-opacity="1" fill-rule="nonzero"/><path fill="#ffa59b" d="M 127.246094 96.476562 C 127.246094 96.476562 126.296875 92.964844 132.816406 91.882812 C 139.332031 90.804688 146.914062 92.078125 144.679688 97.21875 C 142.441406 102.359375 126.203125 102.125 127.246094 96.476562 Z M 127.246094 96.476562 " fill-opacity="1" fill-rule="nonzero"/><path fill="#ffa59b" d="M 166.78125 58.050781 C 172.773438 59.128906 176.417969 64.820312 174.601562 70.707031 C 173.710938 73.605469 177.699219 74.96875 179.269531 72.675781 C 181.453125 69.5 185.988281 72.378906 187.882812 74.25 C 190.457031 76.785156 193.253906 80.769531 190.847656 84.308594 C 188.988281 87.03125 193.417969 89.589844 195.257812 86.886719 C 202.601562 76.097656 183.050781 58.164062 174.863281 70.097656 C 176.421875 70.753906 177.976562 71.410156 179.53125 72.070312 C 182.109375 63.714844 176.808594 54.6875 168.144531 53.132812 C 166.789062 52.890625 165.390625 53.5 165.003906 54.914062 C 164.664062 56.148438 165.421875 57.808594 166.785156 58.054688 Z M 166.78125 58.050781 " fill-opacity="1" fill-rule="nonzero"/><path fill="#ffa59b" d="M 144.671875 139.691406 L 143.726562 139.53125 C 140.46875 138.980469 139.300781 143.253906 142.371094 144.457031 C 152.808594 148.546875 165.316406 145.785156 173.234375 137.921875 C 175.570312 135.601562 171.957031 131.996094 169.621094 134.308594 C 162.882812 141 152.527344 142.980469 143.726562 139.527344 C 143.277344 141.167969 142.824219 142.8125 142.371094 144.449219 L 143.316406 144.609375 C 144.675781 144.839844 146.0625 144.25 146.457031 142.828125 C 146.792969 141.601562 146.039062 139.917969 144.675781 139.6875 Z M 144.671875 139.691406 " fill-opacity="1" fill-rule="nonzero"/><path fill="#ffa59b" d="M 70.921875 44.039062 C 70.941406 43.984375 71.023438 43.582031 71.089844 43.554688 C 70.941406 43.898438 70.921875 43.941406 71.035156 43.6875 L 71.109375 43.53125 C 71.269531 43.207031 71.449219 42.894531 71.648438 42.601562 C 71.75 42.445312 71.859375 42.296875 71.964844 42.144531 C 72.328125 41.632812 71.613281 42.546875 72.03125 42.066406 C 72.292969 41.773438 72.550781 41.476562 72.824219 41.199219 C 73.101562 40.917969 73.410156 40.628906 73.714844 40.363281 C 73.867188 40.226562 74.027344 40.09375 74.191406 39.964844 C 74.238281 39.921875 74.699219 39.566406 74.425781 39.769531 C 74.167969 39.96875 74.707031 39.570312 74.765625 39.523438 C 74.941406 39.398438 75.117188 39.277344 75.296875 39.15625 C 75.652344 38.917969 76.015625 38.683594 76.386719 38.457031 C 77.101562 38.023438 77.832031 37.621094 78.578125 37.25 C 78.960938 37.058594 79.351562 36.875 79.746094 36.699219 C 79.816406 36.667969 80.476562 36.402344 79.914062 36.625 C 80.105469 36.550781 80.296875 36.46875 80.492188 36.390625 C 81.890625 35.851562 83.328125 35.40625 84.800781 35.140625 C 86.121094 34.902344 86.984375 33.230469 86.582031 32 C 86.125 30.585938 84.855469 29.964844 83.441406 30.21875 C 79.925781 30.847656 76.445312 32.378906 73.4375 34.277344 C 70.257812 36.285156 67.171875 38.992188 65.996094 42.6875 C 65.59375 43.960938 66.472656 45.527344 67.777344 45.828125 C 69.171875 46.144531 70.484375 45.40625 70.917969 44.046875 Z M 70.921875 44.039062 " fill-opacity="1" fill-rule="nonzero"/><path fill="#000000" d="M 83.8125 92.914062 C 91.773438 98.917969 103.214844 99.78125 111.914062 94.832031 C 113.109375 94.152344 113.792969 92.800781 113.191406 91.464844 C 112.664062 90.304688 111.027344 89.507812 109.824219 90.191406 C 102.640625 94.277344 93.457031 93.8125 86.835938 88.8125 C 84.210938 86.835938 81.199219 90.941406 83.8125 92.914062 Z M 83.8125 92.914062 " fill-opacity="1" fill-rule="nonzero"/><path fill="#000000" d="M 75.542969 65.777344 C 74.109375 65.035156 72.261719 65.863281 71.355469 67.195312 C 70.453125 68.527344 70.261719 70.207031 70.144531 71.8125 C 70.046875 73.140625 69.996094 74.53125 70.542969 75.746094 C 71.089844 76.960938 72.421875 77.929688 73.71875 77.617188 C 75.539062 77.183594 76 74.851562 76.101562 72.984375 C 76.152344 72.046875 76.199219 71.109375 76.25 70.171875 C 76.308594 69.050781 76.359375 67.875 75.875 66.867188 C 75.390625 65.855469 74.175781 65.101562 73.132812 65.519531 " fill-opacity="1" fill-rule="nonzero"/><path fill="#000000" d="M 76.828125 63.578125 C 75.09375 62.753906 73.378906 62.820312 71.660156 63.640625 C 70.226562 64.324219 69.160156 65.648438 68.554688 67.085938 C 67.914062 68.597656 67.714844 70.1875 67.597656 71.8125 C 67.472656 73.542969 67.566406 75.230469 68.265625 76.835938 C 69.667969 80.050781 73.988281 81.414062 76.617188 78.792969 C 78.679688 76.742188 78.613281 73.5625 78.757812 70.871094 C 78.859375 68.984375 78.964844 66.949219 77.90625 65.285156 C 76.785156 63.519531 74.539062 62.347656 72.457031 63.0625 C 71.203125 63.496094 70.238281 64.828125 70.679688 66.195312 C 71.085938 67.4375 72.460938 68.4375 73.816406 67.972656 C 74.035156 67.898438 74.109375 67.960938 73.613281 67.949219 C 73.730469 67.949219 73.917969 67.996094 73.597656 67.917969 C 73.195312 67.816406 73.554688 67.933594 73.65625 67.949219 C 73.910156 67.992188 73.441406 67.894531 73.429688 67.855469 C 73.4375 67.882812 73.714844 67.984375 73.71875 68.035156 L 73.59375 67.941406 C 73.425781 67.8125 73.425781 67.820312 73.59375 67.972656 C 73.640625 68.070312 73.699219 68.234375 73.609375 67.980469 C 73.476562 67.578125 73.679688 68.117188 73.679688 68.15625 C 73.679688 68.121094 73.527344 67.609375 73.644531 68.128906 C 73.664062 68.226562 73.683594 68.339844 73.71875 68.433594 C 73.839844 68.78125 73.707031 68.007812 73.71875 68.375 C 73.71875 68.480469 73.734375 68.585938 73.738281 68.695312 C 73.765625 69.265625 73.726562 69.839844 73.699219 70.414062 C 73.640625 71.476562 73.617188 72.546875 73.511719 73.613281 C 73.5 73.691406 73.488281 73.769531 73.484375 73.851562 C 73.464844 74.1875 73.589844 73.316406 73.511719 73.648438 C 73.46875 73.828125 73.441406 74.015625 73.402344 74.199219 C 73.359375 74.382812 73.3125 74.558594 73.253906 74.734375 C 73.230469 74.808594 73.207031 74.878906 73.179688 74.957031 C 73.039062 75.425781 73.386719 74.621094 73.230469 74.839844 C 73.191406 74.894531 72.972656 75.210938 72.976562 75.285156 C 72.964844 75.046875 73.34375 74.882812 73.113281 75.105469 C 73.082031 75.132812 72.917969 75.285156 72.917969 75.300781 C 72.917969 75.3125 73.367188 74.96875 73.15625 75.113281 C 73.054688 75.183594 72.785156 75.28125 73.152344 75.152344 C 73.589844 75 73.230469 75.128906 73.183594 75.128906 C 72.667969 75.117188 73.636719 75.175781 73.292969 75.132812 C 73.195312 75.121094 72.808594 75.125 73.214844 75.152344 C 73.597656 75.175781 73.296875 75.128906 73.222656 75.128906 C 72.898438 75.113281 73.242188 74.886719 73.355469 75.191406 C 73.347656 75.167969 73.160156 75.078125 73.128906 75.0625 C 72.835938 74.929688 73.457031 75.386719 73.226562 75.148438 C 73.167969 75.085938 73.097656 75.023438 73.035156 74.96875 C 72.667969 74.640625 73.082031 75.070312 73.089844 75.078125 C 72.992188 75.027344 72.902344 74.792969 72.855469 74.703125 C 72.824219 74.65625 72.738281 74.53125 72.738281 74.472656 C 72.773438 74.546875 72.804688 74.617188 72.84375 74.691406 L 72.78125 74.492188 C 72.753906 74.363281 72.710938 74.21875 72.679688 74.085938 C 72.667969 74.039062 72.605469 73.6875 72.660156 74.011719 C 72.71875 74.359375 72.660156 73.917969 72.652344 73.828125 C 72.640625 73.722656 72.636719 73.621094 72.632812 73.511719 C 72.625 73.226562 72.628906 72.945312 72.640625 72.664062 C 72.664062 72.148438 72.699219 71.628906 72.75 71.113281 C 72.757812 71.011719 72.773438 70.910156 72.78125 70.808594 C 72.824219 70.320312 72.765625 70.800781 72.765625 70.878906 C 72.777344 70.617188 72.855469 70.335938 72.914062 70.082031 C 72.980469 69.789062 73.058594 69.5 73.160156 69.214844 C 73.183594 69.136719 73.214844 69 73.265625 68.933594 C 72.957031 69.332031 73.21875 69.070312 73.300781 68.914062 C 73.351562 68.828125 73.40625 68.742188 73.453125 68.65625 C 73.738281 68.128906 73.222656 68.867188 73.417969 68.671875 C 73.496094 68.59375 73.570312 68.503906 73.648438 68.425781 C 73.84375 68.234375 73.984375 68.289062 73.585938 68.4375 C 73.777344 68.367188 73.984375 68.1875 74.160156 68.085938 C 74.441406 67.921875 74.253906 68.191406 74.015625 68.148438 C 74.082031 68.160156 74.265625 68.074219 74.332031 68.054688 C 74.777344 67.917969 74.171875 68.117188 74.136719 68.066406 C 74.152344 68.09375 74.507812 68.066406 74.535156 68.066406 C 74.785156 68.035156 74.289062 68.058594 74.257812 68.03125 C 74.335938 68.046875 74.414062 68.066406 74.492188 68.09375 C 74.675781 68.15625 74.59375 68.121094 74.261719 67.992188 C 75.457031 68.5625 77.0625 68.363281 77.746094 67.078125 C 78.34375 65.945312 78.117188 64.210938 76.832031 63.597656 Z M 76.828125 63.578125 " fill-opacity="1" fill-rule="nonzero"/><path fill="#000000" d="M 127.117188 76.953125 C 125.683594 76.210938 123.835938 77.042969 122.933594 78.371094 C 122.027344 79.703125 121.835938 81.382812 121.71875 82.988281 C 121.621094 84.316406 121.570312 85.707031 122.117188 86.921875 C 122.664062 88.136719 123.996094 89.105469 125.292969 88.792969 C 127.113281 88.359375 127.574219 86.027344 127.675781 84.164062 C 127.726562 83.222656 127.773438 82.285156 127.824219 81.347656 C 127.882812 80.226562 127.933594 79.050781 127.449219 78.042969 C 126.964844 77.03125 125.75 76.277344 124.707031 76.695312 " fill-opacity="1" fill-rule="nonzero"/><path fill="#000000" d="M 128.402344 74.757812 C 126.667969 73.933594 124.953125 74 123.234375 74.820312 C 121.800781 75.507812 120.734375 76.828125 120.128906 78.265625 C 119.523438 79.707031 119.289062 81.367188 119.171875 82.992188 C 119.046875 84.722656 119.140625 86.410156 119.839844 88.015625 C 121.242188 91.230469 125.5625 92.59375 128.191406 89.972656 C 130.253906 87.921875 130.1875 84.742188 130.332031 82.050781 C 130.433594 80.164062 130.539062 78.128906 129.480469 76.464844 C 128.359375 74.699219 126.113281 73.527344 124.03125 74.242188 C 122.777344 74.675781 121.8125 76.007812 122.257812 77.375 C 122.660156 78.617188 124.039062 79.621094 125.390625 79.152344 C 125.609375 79.078125 125.683594 79.140625 125.1875 79.132812 C 125.304688 79.132812 125.492188 79.175781 125.171875 79.097656 C 124.769531 78.996094 125.128906 79.113281 125.230469 79.132812 C 125.484375 79.171875 125.019531 79.074219 125.003906 79.035156 C 125.011719 79.0625 125.289062 79.164062 125.292969 79.214844 L 125.167969 79.121094 C 125 78.992188 125 79 125.167969 79.152344 C 125.214844 79.253906 125.273438 79.414062 125.183594 79.160156 C 125.050781 78.761719 125.253906 79.296875 125.253906 79.335938 C 125.253906 79.300781 125.101562 78.789062 125.21875 79.308594 C 125.238281 79.40625 125.257812 79.519531 125.292969 79.613281 C 125.414062 79.960938 125.28125 79.191406 125.292969 79.554688 C 125.292969 79.660156 125.308594 79.765625 125.3125 79.875 C 125.339844 80.445312 125.300781 81.019531 125.273438 81.59375 C 125.214844 82.65625 125.191406 83.726562 125.085938 84.792969 C 125.074219 84.871094 125.0625 84.949219 125.058594 85.03125 C 125.039062 85.367188 125.164062 84.496094 125.085938 84.828125 C 125.042969 85.007812 125.019531 85.195312 124.976562 85.378906 C 124.933594 85.5625 124.886719 85.738281 124.828125 85.914062 C 124.804688 85.988281 124.78125 86.058594 124.753906 86.136719 C 124.613281 86.605469 124.960938 85.800781 124.804688 86.019531 C 124.765625 86.074219 124.546875 86.390625 124.550781 86.464844 C 124.539062 86.226562 124.917969 86.0625 124.6875 86.285156 C 124.65625 86.316406 124.492188 86.464844 124.492188 86.480469 C 124.492188 86.492188 124.941406 86.148438 124.730469 86.292969 C 124.628906 86.363281 124.359375 86.460938 124.726562 86.332031 C 125.164062 86.179688 124.804688 86.3125 124.757812 86.3125 C 124.242188 86.296875 125.210938 86.355469 124.867188 86.316406 C 124.769531 86.300781 124.382812 86.304688 124.789062 86.332031 C 125.171875 86.355469 124.871094 86.308594 124.796875 86.308594 C 124.472656 86.292969 124.816406 86.070312 124.929688 86.375 C 124.921875 86.347656 124.734375 86.257812 124.703125 86.242188 C 124.410156 86.109375 125.03125 86.566406 124.800781 86.328125 C 124.742188 86.265625 124.671875 86.203125 124.609375 86.148438 C 124.242188 85.824219 124.65625 86.253906 124.664062 86.257812 C 124.566406 86.207031 124.476562 85.972656 124.429688 85.886719 C 124.398438 85.835938 124.3125 85.710938 124.3125 85.652344 L 124.417969 85.871094 L 124.355469 85.671875 C 124.328125 85.542969 124.285156 85.398438 124.253906 85.269531 C 124.242188 85.21875 124.179688 84.867188 124.234375 85.191406 C 124.292969 85.539062 124.234375 85.097656 124.226562 85.007812 C 124.214844 84.90625 124.210938 84.800781 124.207031 84.691406 C 124.199219 84.410156 124.203125 84.125 124.214844 83.84375 C 124.238281 83.328125 124.273438 82.808594 124.324219 82.292969 C 124.332031 82.191406 124.347656 82.089844 124.355469 81.988281 C 124.398438 81.5 124.339844 81.980469 124.339844 82.058594 C 124.351562 81.796875 124.429688 81.515625 124.488281 81.261719 C 124.554688 80.972656 124.632812 80.679688 124.734375 80.394531 C 124.757812 80.316406 124.789062 80.179688 124.839844 80.117188 C 124.53125 80.511719 124.792969 80.25 124.875 80.09375 C 124.925781 80.007812 124.980469 79.921875 125.027344 79.835938 C 125.3125 79.308594 124.796875 80.050781 124.992188 79.851562 C 125.070312 79.773438 125.144531 79.6875 125.222656 79.605469 C 125.417969 79.414062 125.558594 79.46875 125.160156 79.621094 C 125.351562 79.546875 125.558594 79.367188 125.734375 79.265625 C 126.015625 79.101562 125.828125 79.375 125.589844 79.328125 C 125.65625 79.339844 125.839844 79.257812 125.90625 79.234375 C 126.351562 79.097656 125.746094 79.296875 125.710938 79.246094 C 125.726562 79.273438 126.082031 79.246094 126.109375 79.246094 C 126.359375 79.214844 125.863281 79.238281 125.832031 79.210938 C 125.910156 79.226562 125.988281 79.246094 126.066406 79.273438 C 126.25 79.335938 126.167969 79.300781 125.835938 79.171875 C 127.03125 79.746094 128.636719 79.542969 129.320312 78.257812 C 129.917969 77.125 129.691406 75.390625 128.40625 74.777344 Z M 128.402344 74.757812 " fill-opacity="1" fill-rule="nonzero"/><path fill="#ffa59b" d="M 98.578125 56.53125 C 99.503906 48.015625 106.050781 40.664062 114.246094 38.425781 C 115.933594 37.964844 116.480469 36.132812 115.773438 34.671875 C 112.777344 28.519531 119.59375 22.851562 123.6875 19.410156 C 126.207031 17.289062 122.578125 13.695312 120.074219 15.796875 C 113.804688 21.070312 107.140625 28.578125 111.363281 37.246094 C 111.871094 35.996094 112.382812 34.75 112.890625 33.496094 C 102.335938 36.382812 94.648438 45.726562 93.476562 56.527344 C 93.121094 59.792969 98.230469 59.765625 98.582031 56.527344 Z M 98.578125 56.53125 " fill-opacity="1" fill-rule="nonzero"/><path fill="#ffa59b" d="M 161.964844 30.714844 C 158.433594 29.847656 154.726562 29.851562 151.21875 30.851562 C 149.496094 31.34375 147.800781 32.070312 146.269531 32.996094 C 145.917969 33.210938 145.367188 33.46875 145.105469 33.765625 L 144.65625 34.097656 C 145.007812 34.277344 145.359375 34.457031 145.710938 34.636719 C 145.796875 34.488281 143.800781 32.917969 143.582031 32.746094 C 138.480469 28.726562 131.328125 26.25 125.03125 28.808594 C 123.742188 29.328125 122.863281 30.5 123.25 31.949219 C 123.570312 33.164062 125.113281 34.253906 126.390625 33.730469 C 132.226562 31.359375 137.804688 34.394531 142.21875 38.351562 C 145.261719 41.089844 148.136719 37.457031 151 36.300781 C 154.066406 35.066406 157.417969 34.84375 160.621094 35.628906 C 163.828125 36.414062 165.175781 31.488281 161.980469 30.707031 Z M 161.964844 30.714844 " fill-opacity="1" fill-rule="nonzero"/><path fill="#ffa59b" d="M 138.910156 149.839844 C 148.082031 152.941406 156.917969 147.875 164.390625 143.042969 C 167.140625 141.265625 164.582031 136.84375 161.8125 138.632812 C 155.519531 142.703125 148.054688 147.550781 140.265625 144.914062 C 137.144531 143.859375 135.804688 148.789062 138.910156 149.835938 Z M 138.910156 149.839844 " fill-opacity="1" fill-rule="nonzero"/><path fill="#ffffff" d="M 204.628906 65.714844 C 205.773438 63.847656 206.777344 61.101562 206.839844 59 C 206.90625 56.792969 206.640625 54.613281 206.382812 52.417969 C 205.941406 48.632812 203.902344 45.164062 201.375 42.078125 C 201.308594 41.996094 201.226562 41.917969 201.15625 41.835938 C 200.332031 40.875 199.207031 40.039062 198.53125 39.605469 C 195.03125 37.355469 191.695312 36.476562 187.308594 37.484375 C 183.289062 38.410156 182.546875 41.300781 184.085938 45.125 C 184.820312 46.941406 186.273438 48.261719 187.628906 49.679688 C 188.960938 51.066406 190.105469 52.59375 191.085938 54.21875 C 192.027344 55.777344 192.804688 57.40625 193.386719 59.117188 C 194.035156 61.011719 194.292969 63.054688 195.296875 64.832031 C 197.53125 68.78125 202.203125 69.679688 204.628906 65.714844 Z M 204.628906 65.714844 " fill-opacity="1" fill-rule="nonzero"/><path fill="#ffffff" d="M 212.160156 80.40625 C 213.050781 82.457031 213.65625 84.867188 212.386719 86.847656 C 211.738281 87.859375 210.734375 88.707031 209.539062 88.976562 C 208.273438 89.265625 207.085938 89.042969 205.929688 88.492188 C 204.066406 87.605469 202.953125 85.585938 202.597656 83.625 C 202.421875 82.652344 202.273438 81.605469 202.269531 80.613281 C 202.269531 79.109375 202.953125 77.773438 204.210938 76.960938 C 205.277344 76.273438 206.554688 76.164062 207.769531 76.378906 C 208.777344 76.554688 209.820312 76.945312 210.558594 77.632812 C 211.144531 78.179688 211.5 78.902344 212.160156 80.40625 Z M 212.160156 80.40625 " fill-opacity="1" fill-rule="nonzero"/><path fill="#ffffff" d="M 56.671875 64.210938 C 57.199219 61.816406 57.949219 60.753906 59.789062 59.21875 C 61.652344 57.664062 65.277344 56.203125 64.234375 53.121094 C 63.210938 50.09375 59.007812 51.273438 57.035156 52.511719 C 54.746094 53.949219 52.457031 56.160156 51.621094 58.726562 C 50.871094 61.042969 50.9375 61.5 51.175781 63.160156 C 51.289062 63.949219 51.71875 65.40625 52.796875 66.265625 C 52.796875 66.265625 53.875 67.261719 55.117188 66.859375 C 56.359375 66.453125 56.484375 65.058594 56.667969 64.214844 Z M 56.671875 64.210938 " fill-opacity="1" fill-rule="nonzero"/><path fill="#ffffff" d="M 135.09375 63.5625 C 133.898438 63.992188 133.484375 65.097656 133.40625 66.304688 C 133.28125 68.160156 134.847656 69.578125 136.082031 70.730469 C 137.414062 71.972656 138.851562 73.117188 140.351562 74.148438 C 141.003906 74.597656 141.675781 75.082031 142.382812 75.425781 C 143.722656 76.085938 145.089844 75.394531 145.59375 74.050781 C 145.894531 73.242188 145.761719 72.382812 145.59375 71.554688 C 145.425781 70.761719 145.136719 70.007812 144.804688 69.269531 C 144.195312 67.90625 143.253906 66.636719 142.140625 65.640625 C 140.988281 64.601562 139.355469 63.703125 137.765625 63.386719 C 136.433594 63.121094 135.722656 63.335938 135.09375 63.5625 Z M 136.8125 66.40625 C 136.8125 66.40625 136.8125 66.414062 136.8125 66.421875 C 136.8125 66.410156 136.8125 66.410156 136.808594 66.402344 C 136.808594 66.394531 136.808594 66.402344 136.808594 66.394531 C 136.808594 66.394531 136.808594 66.398438 136.8125 66.402344 Z M 142.371094 72.976562 C 142.371094 72.976562 142.371094 73 142.367188 73.003906 C 142.324219 73.082031 142.347656 73.039062 142.371094 72.976562 Z M 142.371094 72.976562 " fill-opacity="1" fill-rule="nonzero"/><path fill="#ffffff" d="M 76.289062 22.996094 C 76.289062 22.996094 75.644531 21.542969 77.835938 19.1875 C 80.03125 16.835938 86.5625 13.257812 91.226562 12.492188 C 95.890625 11.730469 98.605469 11.96875 98.144531 15.332031 C 97.679688 18.699219 89.363281 19.550781 86.605469 20.40625 C 83.847656 21.257812 77.539062 25.3125 76.289062 22.996094 Z M 76.289062 22.996094 " fill-opacity="1" fill-rule="nonzero"/><path fill="#ffbdc5" d="M 43.304688 124.613281 C 43.304688 124.613281 37.074219 116.855469 45.089844 111.5625 C 53.097656 106.273438 60.058594 114.960938 61.914062 117.054688 C 63.765625 119.148438 68.765625 119.644531 76.289062 119.03125 C 83.808594 118.421875 88.140625 128.523438 92.757812 130.335938 C 97.375 132.144531 100.367188 132.574219 106.914062 128.4375 C 113.453125 124.296875 120.933594 129.675781 125.871094 132.390625 C 130.8125 135.109375 142.695312 136.179688 148.304688 131.105469 C 153.910156 126.035156 151.949219 125.738281 155.113281 124.164062 C 158.277344 122.589844 163.839844 125.632812 171.425781 123.628906 C 179.015625 121.628906 186.316406 113.4375 189.066406 108.027344 C 194.324219 97.660156 204.878906 99.257812 209.726562 103.574219 C 213.621094 107.035156 215.960938 113.746094 214.445312 123.496094 C 212.929688 133.246094 202.472656 146.613281 191.433594 146.878906 C 180.398438 147.144531 181.914062 146.238281 181.914062 146.238281 C 181.914062 146.238281 177.628906 153.6875 168.308594 153.484375 C 158.988281 153.273438 156.851562 147.59375 154.3125 148.230469 C 151.773438 148.867188 145.46875 159.171875 131.730469 160.894531 C 117.992188 162.617188 110.511719 150.679688 110.511719 150.679688 C 110.511719 150.679688 100.097656 154.609375 90.21875 152.734375 C 80.335938 150.867188 72.519531 135.402344 73.09375 133.453125 C 73.09375 133.453125 67.519531 133.507812 64.046875 129.636719 C 64.046875 129.636719 50.332031 134.546875 43.304688 124.613281 Z M 43.304688 124.613281 " fill-opacity="1" fill-rule="nonzero"/><path fill="#ffa59b" d="M 88.09375 104.886719 C 84.824219 109.417969 84.359375 115.554688 86.296875 120.726562 C 87.230469 123.226562 88.605469 125.457031 90.296875 127.515625 C 91.144531 128.539062 92.074219 129.5 93.0625 130.382812 C 93.558594 130.828125 94.078125 131.246094 94.59375 131.664062 C 94.898438 131.894531 95.203125 132.132812 95.5 132.378906 C 95.53125 130.816406 95.367188 130.402344 95 131.132812 C 94.238281 131.816406 93.742188 133.722656 93.496094 134.671875 C 93.148438 136.015625 92.992188 137.46875 93.042969 138.851562 C 93.136719 141.476562 93.863281 144.066406 95.105469 146.378906 C 97.6875 151.175781 102.390625 154.488281 107.242188 156.699219 C 110.210938 158.050781 112.808594 153.648438 109.820312 152.289062 C 105.742188 150.433594 101.675781 147.871094 99.515625 143.800781 C 98.421875 141.738281 97.898438 139.285156 98.21875 136.964844 C 98.507812 134.878906 100.417969 133.121094 100.226562 131.035156 C 100.019531 128.824219 97.644531 127.695312 96.183594 126.324219 C 94.476562 124.726562 93.011719 122.929688 91.917969 120.859375 C 89.648438 116.574219 89.625 111.453125 92.503906 107.464844 C 94.429688 104.796875 90.003906 102.246094 88.09375 104.886719 Z M 88.09375 104.886719 " fill-opacity="1" fill-rule="nonzero"/><path fill="#ffa59b" d="M 33.640625 95.539062 C 32.015625 100.460938 32.523438 105.445312 34.964844 110.011719 C 37.324219 114.421875 41.265625 117.761719 45.929688 119.515625 C 47.21875 120 48.730469 118.980469 49.070312 117.734375 C 49.464844 116.304688 48.585938 115.082031 47.289062 114.59375 C 43.957031 113.339844 41.109375 110.671875 39.378906 107.4375 C 37.644531 104.199219 37.332031 100.636719 38.570312 96.898438 C 39.007812 95.589844 38.070312 94.113281 36.789062 93.757812 C 35.402344 93.375 34.082031 94.226562 33.648438 95.539062 Z M 33.640625 95.539062 " fill-opacity="1" fill-rule="nonzero"/><path fill="#5e4d5c" d="M 76.039062 89.988281 C 67.25 94.398438 56.246094 90.570312 51.09375 82.449219 C 45.738281 74 46.011719 61.117188 53.015625 53.582031 C 59.273438 46.851562 71.5 44.519531 79.292969 49.863281 C 82.613281 52.140625 85.464844 55.15625 87.273438 58.773438 C 89.632812 63.5 89.515625 68.839844 88.449219 73.894531 C 87.546875 78.167969 85.929688 82.367188 82.792969 85.5 C 80.839844 87.449219 78.460938 88.734375 76.039062 89.996094 C 73.121094 91.511719 75.699219 95.917969 78.617188 94.402344 C 81.421875 92.945312 84.144531 91.371094 86.40625 89.113281 C 89.753906 85.765625 91.84375 81.367188 93.007812 76.816406 C 94.550781 70.773438 94.972656 64.246094 92.636719 58.355469 C 90.714844 53.507812 87.339844 49.558594 83.210938 46.433594 C 78.378906 42.773438 72.550781 41.566406 66.5625 42.097656 C 60.714844 42.621094 55.867188 44.605469 51.273438 48.273438 C 41.476562 56.097656 40.132812 71.804688 45.300781 82.53125 C 51.1875 94.742188 66.351562 100.5625 78.617188 94.40625 C 81.554688 92.933594 78.96875 88.527344 76.039062 90 Z M 76.039062 89.988281 " fill-opacity="1" fill-rule="nonzero"/><path fill="#5e4d5c" d="M 139.152344 103.488281 C 130.363281 107.898438 119.359375 104.070312 114.207031 95.945312 C 108.851562 87.5 109.125 74.617188 116.128906 67.082031 C 122.386719 60.351562 134.613281 58.019531 142.40625 63.363281 C 145.726562 65.640625 148.578125 68.65625 150.386719 72.273438 C 152.746094 77 152.628906 82.339844 151.5625 87.394531 C 150.660156 91.667969 149.042969 95.867188 145.90625 99 C 143.953125 100.949219 141.574219 102.234375 139.152344 103.492188 C 136.234375 105.011719 138.8125 109.417969 141.730469 107.902344 C 144.535156 106.441406 147.257812 104.871094 149.519531 102.613281 C 152.867188 99.261719 154.957031 94.867188 156.121094 90.316406 C 157.664062 84.273438 158.085938 77.746094 155.75 71.855469 C 153.828125 67.007812 150.453125 63.058594 146.324219 59.933594 C 141.492188 56.273438 135.664062 55.066406 129.675781 55.597656 C 123.828125 56.121094 118.980469 58.105469 114.386719 61.773438 C 104.589844 69.597656 103.246094 85.304688 108.414062 96.03125 C 114.300781 108.242188 129.464844 114.058594 141.730469 107.90625 C 144.667969 106.433594 142.082031 102.023438 139.152344 103.496094 Z M 139.152344 103.488281 " fill-opacity="1" fill-rule="nonzero"/><path fill="#5e4d5c" d="M 40.507812 55.660156 C 40.488281 55.59375 40.46875 55.527344 40.457031 55.460938 L 40.550781 56.140625 C 40.542969 56.035156 40.535156 55.945312 40.550781 55.84375 L 40.457031 56.523438 C 40.472656 56.425781 40.5 56.335938 40.527344 56.242188 L 40.269531 56.851562 C 40.324219 56.726562 40.386719 56.613281 40.464844 56.5 C 40.332031 56.671875 40.199219 56.847656 40.066406 57.015625 C 40.179688 56.875 40.300781 56.757812 40.441406 56.644531 C 40.269531 56.777344 40.09375 56.914062 39.921875 57.046875 C 40.074219 56.941406 40.226562 56.855469 40.398438 56.785156 L 39.789062 57.042969 C 39.929688 56.992188 40.066406 56.953125 40.210938 56.925781 L 39.53125 57.015625 C 39.722656 56.992188 39.898438 56.996094 40.085938 57.015625 L 39.40625 56.925781 C 39.613281 56.960938 39.8125 57.015625 40.011719 57.09375 L 39.402344 56.832031 C 39.757812 56.984375 40.078125 57.183594 40.386719 57.417969 C 40.214844 57.285156 40.039062 57.152344 39.871094 57.015625 C 40.71875 57.683594 41.445312 58.492188 42.28125 59.183594 C 42.945312 59.734375 43.589844 60.292969 44.210938 60.886719 C 45.175781 61.816406 46.878906 61.917969 47.824219 60.886719 C 48.746094 59.886719 48.855469 58.265625 47.824219 57.277344 C 47.21875 56.691406 46.589844 56.144531 45.945312 55.609375 C 45.136719 54.953125 44.4375 54.179688 43.632812 53.523438 C 42.199219 52.355469 40.367188 51.445312 38.480469 52.089844 C 36.449219 52.785156 34.933594 54.820312 35.578125 57.019531 C 35.953125 58.300781 37.390625 59.230469 38.71875 58.800781 C 40.019531 58.382812 40.902344 57.035156 40.5 55.660156 Z M 40.507812 55.660156 " fill-opacity="1" fill-rule="nonzero"/><path fill="#ffa59b" d="M 133.832031 147.867188 C 118.617188 158.675781 102.105469 167.457031 86.894531 178.265625 C 88.054688 178.570312 89.21875 178.875 90.382812 179.183594 C 88.589844 175.207031 85.652344 169.515625 81.007812 168.421875 C 78.890625 167.925781 76.71875 168.859375 75.652344 170.753906 C 74.453125 172.898438 75.171875 175.355469 76.0625 177.453125 C 77.285156 180.328125 79.042969 184.410156 82.425781 185.28125 C 84.882812 185.910156 86.878906 184.433594 88.613281 182.898438 C 89.230469 182.351562 89.574219 181.199219 89.265625 180.414062 C 88.597656 178.710938 87.824219 177.171875 86.261719 176.121094 C 84.964844 175.25 83.507812 174.722656 82.238281 173.777344 C 80.027344 172.148438 77.675781 175.21875 78.746094 177.269531 C 79.8125 179.320312 81.199219 180.742188 83.003906 182.003906 C 84.644531 183.152344 86.824219 181.609375 86.847656 179.800781 C 86.882812 176.84375 85.859375 174.292969 83.964844 172.050781 C 82.8125 170.6875 79.957031 171.3125 79.695312 173.175781 C 79.132812 177.242188 80.128906 180.898438 82.84375 184.015625 C 85.003906 186.496094 88.601562 182.875 86.453125 180.402344 C 85.070312 178.8125 84.332031 176.648438 84.625 174.53125 C 83.199219 174.910156 81.777344 175.285156 80.355469 175.660156 C 81.378906 176.871094 81.761719 178.242188 81.742188 179.800781 C 83.019531 179.066406 84.300781 178.332031 85.582031 177.597656 C 84.488281 176.835938 83.765625 175.867188 83.15625 174.695312 C 81.992188 175.859375 80.828125 177.023438 79.664062 178.1875 C 81.265625 179.371094 83.582031 179.808594 84.347656 181.769531 L 85.003906 179.289062 C 84.570312 179.675781 84.316406 179.886719 84.136719 180.019531 C 83.941406 180.160156 83.730469 180.261719 83.527344 180.378906 C 83.839844 180.199219 83.355469 180.261719 83.765625 180.328125 C 83.582031 180.296875 83.722656 180.457031 83.5 180.179688 C 82.910156 179.453125 82.390625 178.792969 81.925781 177.949219 C 81.253906 176.730469 80.78125 175.476562 80.253906 174.195312 C 80.167969 173.9375 80.117188 173.667969 80.109375 173.394531 C 79.746094 173.355469 79.691406 173.363281 79.945312 173.421875 C 80.332031 173.328125 81.042969 174.089844 81.296875 174.332031 C 83.371094 176.296875 84.8125 179.191406 85.972656 181.757812 C 86.503906 182.941406 88.421875 183.410156 89.460938 182.675781 C 104.675781 171.867188 121.1875 163.085938 136.402344 152.277344 C 139.058594 150.386719 136.511719 145.960938 133.824219 147.867188 Z M 133.832031 147.867188 " fill-opacity="1" fill-rule="nonzero"/><path fill="#ffa59b" d="M 34.15625 128.941406 C 26.140625 130.566406 18.183594 132.46875 10.300781 134.652344 C 11.378906 135.472656 12.453125 136.292969 13.535156 137.113281 C 13.570312 136.15625 13.738281 136.121094 14.175781 135.265625 C 14.761719 134.121094 14.71875 132.902344 14.273438 131.71875 C 14.085938 131.226562 13.847656 130.765625 13.632812 130.285156 C 13.652344 130.316406 13.910156 130.96875 13.738281 130.523438 C 13.59375 130.148438 13.457031 129.765625 13.308594 129.390625 C 12.835938 128.207031 12.328125 127.019531 11.644531 125.9375 C 10.042969 123.414062 7.152344 120.714844 4.054688 122.675781 C 0.503906 124.921875 1.375 129.09375 3.109375 132.195312 C 4.640625 134.925781 6.589844 137.667969 9.636719 138.796875 C 11.203125 139.378906 12.984375 139.1875 14.03125 137.773438 C 15.078125 136.359375 14.894531 134.640625 14.347656 133.101562 C 13.800781 131.5625 13.0625 129.910156 12.222656 128.421875 C 11.382812 126.929688 10.339844 124.890625 8.769531 124.050781 C 7.082031 123.144531 4.972656 123.964844 4.304688 125.746094 C 3.71875 127.328125 4.160156 129.316406 4.417969 130.941406 C 4.882812 133.832031 6.476562 138.308594 9.527344 139.34375 C 11.601562 140.046875 13.753906 138.671875 13.917969 136.460938 C 14.019531 135.101562 14.003906 133.273438 13.53125 131.992188 C 13.054688 130.707031 11.796875 129.820312 10.386719 130.210938 C 9.144531 130.550781 8.125 132.046875 8.605469 133.351562 C 8.886719 134.101562 8.90625 135.527344 8.8125 136.464844 L 9.160156 135.175781 L 8.960938 135.527344 L 9.878906 134.609375 L 9.585938 134.78125 C 10.015625 134.664062 10.445312 134.546875 10.875 134.429688 C 11.476562 134.40625 11.453125 134.738281 10.96875 133.988281 C 10.800781 133.734375 10.644531 133.472656 10.496094 133.203125 C 10.167969 132.613281 9.917969 132.019531 9.730469 131.363281 C 9.550781 130.75 9.425781 130.125 9.332031 129.492188 C 9.285156 129.152344 9.257812 128.816406 9.222656 128.476562 C 9.203125 128.246094 9.320312 127.085938 9.003906 127.710938 L 8.085938 128.628906 L 8.359375 128.441406 C 7.929688 128.558594 7.5 128.675781 7.070312 128.789062 L 7.480469 128.8125 L 6.191406 128.460938 C 6.640625 128.761719 6.988281 129.628906 7.277344 130.09375 C 7.695312 130.765625 8.078125 131.457031 8.433594 132.160156 C 8.726562 132.75 9 133.347656 9.238281 133.964844 C 9.367188 134.296875 9.433594 134.859375 9.640625 135.121094 C 10.058594 135.640625 7.988281 135.421875 10.253906 134.355469 L 11.542969 134.003906 C 9.695312 134.101562 7.933594 130.433594 7.25 129.144531 C 6.945312 128.574219 6.734375 128.042969 6.601562 127.414062 C 6.582031 127.339844 6.714844 127.0625 6.703125 127.046875 C 6.980469 126.855469 6.847656 126.8125 6.304688 126.933594 C 5.742188 126.839844 5.621094 126.871094 5.933594 127.039062 C 5.996094 127.253906 6.59375 127.640625 6.746094 127.828125 C 7.085938 128.234375 7.359375 128.710938 7.617188 129.175781 C 8.351562 130.496094 8.652344 132.066406 9.449219 133.355469 C 9.988281 134.226562 9.28125 132.683594 9.6875 132.828125 C 9.664062 132.820312 9.3125 133.421875 9.28125 133.472656 C 8.664062 134.605469 8.472656 135.832031 8.421875 137.109375 C 8.351562 138.777344 10.109375 140 11.65625 139.570312 C 19.539062 137.386719 27.492188 135.480469 35.511719 133.859375 C 38.726562 133.207031 37.367188 128.28125 34.15625 128.9375 Z M 34.15625 128.941406 " fill-opacity="1" fill-rule="nonzero"/><path fill="#5e4d5c" d="M 157.082031 84.75 C 162 83.316406 167.019531 82.203125 172.09375 81.507812 C 174.601562 81.167969 177.125 80.929688 179.648438 80.777344 C 180.832031 80.707031 182.011719 80.648438 183.195312 80.628906 C 183.59375 80.621094 184 80.597656 184.398438 80.628906 C 185.300781 80.703125 184.722656 80.6875 184.71875 80.703125 C 184.585938 82.078125 185.988281 83.257812 187.273438 83.257812 C 188.765625 83.257812 189.691406 82.082031 189.824219 80.703125 C 190.132812 77.554688 187.144531 75.71875 184.375 75.53125 C 181.277344 75.324219 178.015625 75.734375 174.9375 76.0625 C 168.429688 76.75 162.003906 77.996094 155.722656 79.828125 C 152.570312 80.746094 153.910156 85.675781 157.078125 84.75 Z M 157.082031 84.75 " fill-opacity="1" fill-rule="nonzero"/><path fill="#5e4d5c" d="M 90.683594 78.425781 C 96 81.261719 101.886719 82.261719 107.839844 81.425781 C 109.164062 81.238281 110.007812 79.480469 109.621094 78.285156 C 109.148438 76.828125 107.902344 76.300781 106.480469 76.503906 C 106.902344 76.445312 105.933594 76.558594 105.84375 76.566406 C 105.582031 76.589844 105.320312 76.605469 105.050781 76.625 C 104.433594 76.65625 103.816406 76.667969 103.203125 76.65625 C 101.8125 76.628906 101.070312 76.554688 99.9375 76.339844 C 98.714844 76.113281 97.515625 75.792969 96.335938 75.386719 C 95.160156 74.976562 94.5 74.679688 93.261719 74.015625 C 92.085938 73.386719 90.429688 73.683594 89.769531 74.933594 C 89.144531 76.121094 89.429688 77.753906 90.6875 78.425781 Z M 90.683594 78.425781 " fill-opacity="1" fill-rule="nonzero"/><path fill="#b6c9e0" d="M 31.46875 100.363281 C 30.816406 99.261719 16.476562 74.59375 12.835938 73.78125 C 9.199219 72.972656 4.765625 74.40625 7.59375 80.867188 C 10.421875 87.328125 20.652344 106.636719 22.585938 112.136719 C 22.894531 113.019531 35.972656 140.488281 43.429688 152.109375 C 45.648438 155.570312 47.753906 154.296875 49.1875 154.164062 C 52.429688 153.859375 92.8125 141.238281 96.851562 139.214844 C 100.886719 137.195312 101.292969 136.386719 101.699219 132.347656 C 102.101562 128.3125 90.386719 85.898438 87.15625 81.859375 C 83.921875 77.820312 81.902344 77.417969 77.863281 79.839844 C 73.828125 82.265625 34.421875 105.371094 31.464844 100.359375 Z M 31.46875 100.363281 " fill-opacity="1" fill-rule="nonzero"/><path fill="#ffffff" d="M 57.53125 139.386719 C 57.53125 139.386719 56.234375 138 55.082031 133.394531 C 54.585938 131.414062 56.53125 130.378906 57.3125 129.609375 C 58.4375 128.496094 83.730469 120.46875 83.730469 120.46875 C 83.730469 120.46875 87.4375 118.984375 88.925781 122.445312 C 90.410156 125.90625 91.296875 128.28125 91.296875 128.28125 C 91.296875 128.28125 93.578125 132.304688 87.480469 134.84375 C 82.476562 136.925781 71.890625 139.894531 65.640625 141.917969 C 63.117188 142.738281 59.894531 144.832031 57.53125 139.390625 Z M 57.53125 139.386719 " fill-opacity="1" fill-rule="nonzero"/><path fill="#ffffff" d="M 56.203125 115.175781 C 61.394531 113.113281 66.59375 111.054688 71.785156 108.988281 C 72.539062 108.691406 73.289062 108.390625 74.039062 108.09375 C 75.320312 107.585938 76.21875 106.390625 75.820312 104.953125 C 75.488281 103.734375 73.96875 102.660156 72.679688 103.171875 C 67.484375 105.234375 62.289062 107.292969 57.09375 109.359375 C 56.34375 109.65625 55.59375 109.957031 54.839844 110.25 C 53.5625 110.761719 52.664062 111.957031 53.058594 113.394531 C 53.394531 114.609375 54.914062 115.6875 56.203125 115.175781 Z M 56.203125 115.175781 " fill-opacity="1" fill-rule="nonzero"/><path fill="#ffffff" d="M 60.195312 122.894531 C 62.835938 121.886719 65.476562 120.871094 68.121094 119.863281 C 68.496094 119.722656 68.871094 119.574219 69.246094 119.433594 C 69.882812 119.1875 70.414062 118.871094 70.773438 118.261719 C 71.09375 117.714844 71.226562 116.90625 71.03125 116.292969 C 70.640625 115.078125 69.226562 113.996094 67.890625 114.511719 C 65.25 115.519531 62.609375 116.535156 59.964844 117.542969 C 59.589844 117.6875 59.214844 117.832031 58.839844 117.972656 C 58.199219 118.21875 57.671875 118.535156 57.3125 119.144531 C 56.988281 119.691406 56.855469 120.5 57.050781 121.113281 C 57.445312 122.328125 58.859375 123.410156 60.195312 122.894531 Z M 60.195312 122.894531 " fill-opacity="1" fill-rule="nonzero"/><path fill="#ffffff" d="M 31.078125 108.601562 C 32.578125 113.089844 33.636719 117.707031 34.820312 122.28125 C 36.429688 128.492188 38.296875 134.617188 40.519531 140.632812 C 41.652344 143.6875 46.585938 142.371094 45.441406 139.277344 C 43.21875 133.261719 41.351562 127.140625 39.746094 120.925781 C 38.558594 116.351562 37.5 111.734375 36.003906 107.242188 C 34.96875 104.144531 30.03125 105.472656 31.078125 108.601562 Z M 31.078125 108.601562 " fill-opacity="1" fill-rule="nonzero"/><path fill="#ffa59b" d="M 160.496094 107.882812 C 156.734375 116.695312 146.945312 120.429688 138.382812 122.984375 C 129.28125 125.695312 118.988281 125.3125 109.679688 123.914062 C 107.464844 123.582031 105.265625 123.140625 103.121094 122.484375 C 100.140625 121.566406 96.804688 120.664062 94.054688 122.671875 C 92.632812 123.710938 92.425781 125.316406 93.539062 126.679688 C 95.023438 128.503906 97.355469 128.859375 99.570312 128.621094 C 101.339844 128.433594 104.003906 127.402344 105.632812 128.410156 C 105.835938 126.855469 106.035156 125.300781 106.242188 123.742188 C 103.761719 124.773438 101.109375 125.742188 98.402344 125.835938 C 97.101562 125.882812 95.828125 125.605469 94.535156 125.617188 C 93.417969 125.625 92.582031 125.816406 91.519531 125.710938 C 90.609375 125.625 89.785156 126.269531 89.316406 126.976562 C 88.191406 128.675781 89.378906 131.0625 90.972656 131.964844 C 92.726562 132.953125 95.074219 132.589844 96.984375 132.386719 C 101.21875 131.929688 105.457031 130.878906 108.726562 128.011719 C 110.277344 126.652344 109.128906 123.363281 106.921875 123.652344 C 102.386719 124.242188 98.121094 125.800781 93.683594 126.824219 C 90.476562 127.570312 91.839844 132.441406 95.039062 131.75 C 96.972656 131.332031 98.90625 132.03125 100.835938 131.664062 C 103.453125 131.167969 103.066406 127.453125 100.835938 126.742188 C 97.199219 125.585938 93.734375 125.019531 90.609375 127.621094 C 88.945312 129.011719 90.277344 132.140625 92.414062 131.980469 C 97.914062 131.574219 103.351562 131.292969 108.210938 128.410156 C 111.035156 126.738281 108.46875 122.320312 105.632812 124 C 101.582031 126.40625 96.992188 126.535156 92.414062 126.875 L 94.222656 131.234375 C 95.59375 130.09375 98.015625 131.203125 99.480469 131.667969 L 99.480469 126.746094 C 99.503906 126.742188 97.753906 126.535156 97.28125 126.511719 C 96.0625 126.453125 94.878906 126.570312 93.6875 126.828125 L 95.042969 131.753906 C 99.007812 130.835938 102.875 129.292969 106.925781 128.761719 C 106.324219 127.308594 105.71875 125.855469 105.117188 124.402344 C 103.511719 125.8125 101.382812 126.449219 99.328125 126.894531 C 98.359375 127.101562 97.378906 127.25 96.394531 127.34375 C 95.832031 127.398438 95.265625 127.433594 94.699219 127.460938 L 94.105469 127.484375 C 93.410156 127.375 93.339844 127.460938 93.886719 127.734375 C 93.800781 128.390625 93.71875 129.046875 93.628906 129.703125 L 93.726562 129.558594 C 92.992188 129.980469 92.257812 130.402344 91.523438 130.824219 C 92.332031 130.902344 93.484375 130.769531 94.539062 130.726562 C 96.070312 130.667969 97.554688 131.03125 99.101562 130.90625 C 102.066406 130.664062 104.871094 129.808594 107.605469 128.675781 C 109.574219 127.851562 110.234375 125.257812 108.214844 124.003906 C 106.246094 122.785156 104.042969 122.847656 101.832031 123.164062 C 100.53125 123.347656 98.117188 124.261719 97.15625 123.070312 L 96.636719 127.082031 C 98.546875 125.6875 101.496094 127.394531 103.546875 127.910156 C 105.777344 128.46875 108.054688 128.820312 110.335938 129.121094 C 115.558594 129.800781 120.855469 130.058594 126.117188 129.910156 C 136.300781 129.617188 146.953125 126.757812 155.515625 121.105469 C 159.546875 118.445312 162.996094 114.945312 164.910156 110.460938 C 166.1875 107.472656 161.789062 104.867188 160.5 107.882812 Z M 160.496094 107.882812 " fill-opacity="1" fill-rule="nonzero"/><path fill="#ffa59b" d="M 21.457031 99.675781 C 21.007812 98.027344 20.140625 96.492188 18.957031 95.257812 C 18.292969 94.570312 17.375 93.9375 16.449219 94.179688 L 18.957031 95.257812 C 18.425781 94.933594 16.90625 92.679688 15.300781 93.261719 C 14.71875 93.472656 14.367188 94.136719 14.332031 94.757812 C 14.292969 95.375 14.566406 95.960938 14.835938 96.515625 C 15.757812 98.402344 16.445312 99.640625 18.472656 101.804688 C 18.957031 102.316406 19.292969 102.246094 19.949219 102.503906 C 20.1875 102.597656 20.992188 102.566406 21.214844 102.445312 C 21.367188 102.359375 21.453125 102.191406 21.511719 102.023438 C 21.773438 101.273438 21.660156 100.445312 21.453125 99.675781 Z M 21.457031 99.675781 " fill-opacity="1" fill-rule="nonzero"/><path fill="#ffa59b" d="M 23.917969 98.996094 C 23.417969 97.199219 22.539062 95.601562 21.375 94.152344 C 20.816406 93.460938 20.171875 92.84375 19.425781 92.355469 C 18.324219 91.636719 17.050781 91.441406 15.773438 91.710938 C 14.792969 91.921875 14.070312 92.898438 13.945312 93.835938 C 13.820312 94.773438 14.246094 95.984375 15.164062 96.382812 C 16 96.738281 16.832031 97.101562 17.671875 97.460938 C 18.328125 97.746094 18.917969 97.917969 19.640625 97.71875 C 20.234375 97.558594 20.875 97.097656 21.167969 96.546875 C 21.847656 95.261719 21.441406 93.84375 20.25 93.054688 C 20.046875 92.917969 20.882812 93.609375 20.53125 93.257812 C 20.445312 93.171875 20.359375 93.089844 20.273438 93 C 20.050781 92.773438 19.828125 92.542969 19.589844 92.332031 C 18.835938 91.648438 17.941406 90.988281 16.929688 90.75 C 15.53125 90.425781 14.019531 90.738281 13 91.796875 C 11.890625 92.953125 11.542969 94.648438 11.964844 96.175781 C 12.230469 97.148438 12.765625 98.105469 13.242188 98.996094 C 13.574219 99.621094 13.941406 100.222656 14.355469 100.796875 C 14.960938 101.640625 15.621094 102.449219 16.316406 103.222656 C 16.710938 103.660156 17.140625 104.097656 17.671875 104.378906 C 18.15625 104.632812 18.691406 104.777344 19.207031 104.941406 C 20.550781 105.367188 22.222656 105.082031 23.207031 104.070312 C 24.476562 102.769531 24.339844 100.609375 23.917969 98.996094 C 23.578125 97.703125 22.078125 96.792969 20.777344 97.214844 C 19.472656 97.636719 18.632812 98.972656 18.996094 100.355469 C 19.039062 100.535156 19.070312 100.722656 19.121094 100.902344 C 19.195312 101.164062 19.089844 100.625 19.089844 100.621094 C 19.082031 100.714844 19.109375 100.835938 19.117188 100.9375 C 19.117188 101.050781 19.070312 101.679688 19.121094 101.222656 C 19.164062 100.828125 19.136719 101.117188 19.101562 101.195312 C 18.835938 101.800781 19.992188 100.199219 19.929688 100.242188 C 20.386719 99.917969 20.578125 100.003906 20.324219 100.050781 C 20.261719 100.066406 21.011719 99.996094 20.753906 99.992188 C 20.625 99.992188 20.5 100.011719 20.371094 100.007812 C 19.882812 99.992188 20.65625 100.039062 20.660156 100.050781 C 20.621094 99.972656 20.285156 99.925781 20.191406 99.898438 C 20.136719 99.882812 19.855469 99.765625 19.828125 99.789062 C 19.820312 99.792969 20.386719 100.035156 20.199219 99.945312 C 20.105469 99.898438 19.890625 99.730469 20.222656 99.980469 C 20.589844 100.257812 20.183594 99.894531 20.101562 99.804688 C 19.945312 99.640625 19.796875 99.476562 19.648438 99.304688 C 19.414062 99.042969 19.1875 98.777344 18.964844 98.5 C 18.617188 98.074219 19.242188 98.875 18.984375 98.535156 C 18.886719 98.394531 18.78125 98.261719 18.6875 98.121094 C 18.042969 97.210938 17.527344 96.226562 17.042969 95.226562 C 17.050781 95.242188 16.886719 94.933594 16.894531 94.921875 C 16.910156 94.902344 17.070312 95.417969 16.988281 95.136719 C 16.941406 94.988281 16.90625 94.707031 16.824219 94.574219 C 16.878906 94.667969 16.832031 95.171875 16.882812 94.753906 C 16.882812 94.726562 16.75 95.363281 16.835938 95.121094 C 16.855469 95.070312 16.882812 94.988281 16.886719 94.9375 C 16.707031 95.324219 16.664062 95.429688 16.753906 95.253906 C 16.769531 95.21875 16.792969 95.179688 16.816406 95.140625 C 16.910156 94.921875 16.597656 95.417969 16.605469 95.410156 C 16.84375 95.121094 16.394531 95.550781 16.371094 95.570312 C 16.441406 95.515625 16.6875 95.417969 16.28125 95.601562 C 15.769531 95.832031 16.566406 95.613281 15.960938 95.691406 C 15.355469 95.773438 16.335938 95.78125 15.703125 95.691406 C 15.1875 95.617188 15.691406 95.722656 15.824219 95.757812 C 16.105469 95.835938 15.265625 95.472656 15.511719 95.632812 C 15.570312 95.675781 15.640625 95.707031 15.703125 95.742188 C 15.800781 95.800781 16.25 96.128906 15.855469 95.832031 C 15.464844 95.53125 15.894531 95.871094 15.984375 95.953125 C 16.085938 96.046875 16.191406 96.144531 16.292969 96.242188 C 16.742188 96.683594 17.140625 97.113281 17.671875 97.46875 C 18.53125 96 19.390625 94.527344 20.25 93.058594 C 19.414062 92.703125 18.582031 92.339844 17.742188 91.980469 C 17.539062 93.535156 17.339844 95.09375 17.132812 96.648438 C 16.722656 96.679688 16.617188 96.699219 16.820312 96.691406 C 17.027344 96.691406 16.917969 96.667969 16.503906 96.628906 C 16.574219 96.640625 16.644531 96.65625 16.714844 96.675781 C 16.90625 96.734375 16.816406 96.695312 16.453125 96.550781 C 16.507812 96.632812 16.765625 96.730469 16.855469 96.777344 C 17.242188 96.988281 16.558594 96.503906 16.769531 96.707031 C 16.984375 96.910156 17.183594 97.089844 17.371094 97.304688 C 17.476562 97.417969 17.574219 97.535156 17.675781 97.65625 C 18.035156 98.078125 17.347656 97.179688 17.65625 97.632812 C 17.964844 98.085938 18.285156 98.578125 18.539062 99.09375 C 18.605469 99.230469 18.664062 99.378906 18.738281 99.515625 C 18.40625 98.914062 18.648438 99.296875 18.71875 99.480469 C 18.828125 99.773438 18.917969 100.070312 19.003906 100.367188 C 19.363281 101.652344 20.824219 102.582031 22.144531 102.152344 C 23.457031 101.726562 24.3125 100.386719 23.925781 99.007812 Z M 23.917969 98.996094 " fill-opacity="1" fill-rule="nonzero"/></svg>